<mxfile host="app.diagrams.net" agent="Mozilla/5.0 (Windows NT 10.0; Win64; x64) AppleWebKit/537.36 (KHTML, like Gecko) Chrome/133.0.0.0 Safari/537.36" version="26.0.16">
  <diagram name="Page-1" id="DQBGjj1A4oDyPlnLigwl">
    <mxGraphModel dx="1339" dy="279" grid="1" gridSize="10" guides="1" tooltips="1" connect="1" arrows="1" fold="1" page="1" pageScale="1" pageWidth="850" pageHeight="1100" math="0" shadow="0">
      <root>
        <mxCell id="0" />
        <mxCell id="1" parent="0" />
        <mxCell id="vnblUEhHMYSCbxSBya0f-127" value="AWS Cloud" style="sketch=0;outlineConnect=0;html=1;whiteSpace=wrap;fontSize=12;fontStyle=0;shape=mxgraph.aws4.group;grIcon=mxgraph.aws4.group_aws_cloud;strokeColor=#666666;fillColor=#f5f5f5;verticalAlign=top;align=left;spacingLeft=30;dashed=0;fontColor=#333333;container=0;" vertex="1" parent="1">
          <mxGeometry x="-480.5" y="40" width="2120.5" height="1400" as="geometry" />
        </mxCell>
        <mxCell id="vnblUEhHMYSCbxSBya0f-122" value="office building" style="sketch=0;outlineConnect=0;gradientColor=none;fontColor=#545B64;strokeColor=none;fillColor=#879196;dashed=0;verticalLabelPosition=bottom;verticalAlign=top;align=center;html=1;fontSize=12;fontStyle=0;aspect=fixed;shape=mxgraph.aws4.illustration_office_building;pointerEvents=1;container=0;" vertex="1" parent="1">
          <mxGeometry x="1790" y="200" width="225.36" height="160" as="geometry" />
        </mxCell>
        <mxCell id="vnblUEhHMYSCbxSBya0f-138" style="edgeStyle=orthogonalEdgeStyle;rounded=0;orthogonalLoop=1;jettySize=auto;html=1;" edge="1" parent="1" source="vnblUEhHMYSCbxSBya0f-129" target="vnblUEhHMYSCbxSBya0f-17">
          <mxGeometry relative="1" as="geometry">
            <Array as="points">
              <mxPoint x="1580" y="289" />
              <mxPoint x="1580" y="289" />
            </Array>
          </mxGeometry>
        </mxCell>
        <mxCell id="vnblUEhHMYSCbxSBya0f-139" style="edgeStyle=orthogonalEdgeStyle;rounded=0;orthogonalLoop=1;jettySize=auto;html=1;" edge="1" parent="1" source="vnblUEhHMYSCbxSBya0f-129" target="vnblUEhHMYSCbxSBya0f-122">
          <mxGeometry relative="1" as="geometry">
            <Array as="points">
              <mxPoint x="1760" y="289" />
              <mxPoint x="1760" y="289" />
            </Array>
          </mxGeometry>
        </mxCell>
        <mxCell id="vnblUEhHMYSCbxSBya0f-129" value="" style="sketch=0;points=[[0,0,0],[0.25,0,0],[0.5,0,0],[0.75,0,0],[1,0,0],[0,1,0],[0.25,1,0],[0.5,1,0],[0.75,1,0],[1,1,0],[0,0.25,0],[0,0.5,0],[0,0.75,0],[1,0.25,0],[1,0.5,0],[1,0.75,0]];outlineConnect=0;fontColor=#232F3E;fillColor=#8C4FFF;strokeColor=#ffffff;dashed=0;verticalLabelPosition=bottom;verticalAlign=top;align=center;html=1;fontSize=12;fontStyle=0;aspect=fixed;shape=mxgraph.aws4.resourceIcon;resIcon=mxgraph.aws4.site_to_site_vpn;container=0;" vertex="1" parent="1">
          <mxGeometry x="1622" y="250" width="78" height="78" as="geometry" />
        </mxCell>
        <mxCell id="vnblUEhHMYSCbxSBya0f-134" value="" style="sketch=0;pointerEvents=1;shadow=0;dashed=0;html=1;strokeColor=none;labelPosition=center;verticalLabelPosition=bottom;verticalAlign=top;align=center;fillColor=#505050;shape=mxgraph.mscae.intune.user_group;container=0;" vertex="1" parent="1">
          <mxGeometry x="-600" y="625" width="50" height="37" as="geometry" />
        </mxCell>
        <mxCell id="vnblUEhHMYSCbxSBya0f-135" style="edgeStyle=orthogonalEdgeStyle;rounded=0;orthogonalLoop=1;jettySize=auto;html=1;entryX=0.019;entryY=0.431;entryDx=0;entryDy=0;entryPerimeter=0;" edge="1" parent="1" source="vnblUEhHMYSCbxSBya0f-134" target="vnblUEhHMYSCbxSBya0f-127">
          <mxGeometry relative="1" as="geometry" />
        </mxCell>
        <mxCell id="vnblUEhHMYSCbxSBya0f-136" value="User" style="text;html=1;align=center;verticalAlign=middle;whiteSpace=wrap;rounded=0;container=0;" vertex="1" parent="1">
          <mxGeometry x="-600" y="662" width="60" height="30" as="geometry" />
        </mxCell>
        <mxCell id="vnblUEhHMYSCbxSBya0f-52" style="edgeStyle=orthogonalEdgeStyle;rounded=0;orthogonalLoop=1;jettySize=auto;html=1;strokeColor=#009900;" edge="1" parent="1" source="vnblUEhHMYSCbxSBya0f-14" target="vnblUEhHMYSCbxSBya0f-15">
          <mxGeometry relative="1" as="geometry">
            <Array as="points">
              <mxPoint x="-40" y="560" />
            </Array>
          </mxGeometry>
        </mxCell>
        <mxCell id="vnblUEhHMYSCbxSBya0f-53" style="edgeStyle=orthogonalEdgeStyle;rounded=0;orthogonalLoop=1;jettySize=auto;html=1;strokeColor=#009900;" edge="1" parent="1" source="vnblUEhHMYSCbxSBya0f-14" target="vnblUEhHMYSCbxSBya0f-46">
          <mxGeometry relative="1" as="geometry">
            <Array as="points">
              <mxPoint x="-40" y="920" />
            </Array>
          </mxGeometry>
        </mxCell>
        <mxCell id="vnblUEhHMYSCbxSBya0f-14" value="Amazon Cloudfront" style="sketch=0;outlineConnect=0;fontColor=#232F3E;gradientColor=none;strokeColor=#ffffff;fillColor=#232F3E;dashed=0;verticalLabelPosition=middle;verticalAlign=bottom;align=center;html=1;whiteSpace=wrap;fontSize=10;fontStyle=1;spacing=3;shape=mxgraph.aws4.productIcon;prIcon=mxgraph.aws4.cloudfront;container=0;" vertex="1" parent="1">
          <mxGeometry x="-80" y="700" width="80" height="110" as="geometry" />
        </mxCell>
        <mxCell id="vnblUEhHMYSCbxSBya0f-28" value="Region B" style="points=[[0,0],[0.25,0],[0.5,0],[0.75,0],[1,0],[1,0.25],[1,0.5],[1,0.75],[1,1],[0.75,1],[0.5,1],[0.25,1],[0,1],[0,0.75],[0,0.5],[0,0.25]];outlineConnect=0;gradientColor=none;html=1;whiteSpace=wrap;fontSize=12;fontStyle=0;container=0;pointerEvents=0;collapsible=0;recursiveResize=0;shape=mxgraph.aws4.group;grIcon=mxgraph.aws4.group_region;strokeColor=#00A4A6;fillColor=none;verticalAlign=top;align=left;spacingLeft=30;fontColor=#147EBA;dashed=1;" vertex="1" parent="1">
          <mxGeometry x="80" y="800" width="1520" height="600" as="geometry" />
        </mxCell>
        <mxCell id="vnblUEhHMYSCbxSBya0f-84" style="edgeStyle=orthogonalEdgeStyle;rounded=0;orthogonalLoop=1;jettySize=auto;html=1;" edge="1" parent="1" source="vnblUEhHMYSCbxSBya0f-48" target="vnblUEhHMYSCbxSBya0f-17">
          <mxGeometry relative="1" as="geometry">
            <Array as="points">
              <mxPoint x="1080" y="736" />
            </Array>
          </mxGeometry>
        </mxCell>
        <mxCell id="vnblUEhHMYSCbxSBya0f-87" style="edgeStyle=orthogonalEdgeStyle;rounded=0;orthogonalLoop=1;jettySize=auto;html=1;" edge="1" parent="1" source="vnblUEhHMYSCbxSBya0f-48" target="vnblUEhHMYSCbxSBya0f-6">
          <mxGeometry relative="1" as="geometry">
            <Array as="points">
              <mxPoint x="1000" y="600" />
              <mxPoint x="920" y="600" />
            </Array>
          </mxGeometry>
        </mxCell>
        <mxCell id="vnblUEhHMYSCbxSBya0f-48" value="" style="outlineConnect=0;dashed=0;verticalLabelPosition=bottom;verticalAlign=top;align=center;html=1;shape=mxgraph.aws3.vpc_peering;fillColor=#F58534;gradientColor=none;container=0;" vertex="1" parent="1">
          <mxGeometry x="960" y="700" width="80" height="80" as="geometry" />
        </mxCell>
        <mxCell id="vnblUEhHMYSCbxSBya0f-66" style="edgeStyle=orthogonalEdgeStyle;rounded=0;orthogonalLoop=1;jettySize=auto;html=1;strokeColor=#0000FF;" edge="1" parent="1" source="vnblUEhHMYSCbxSBya0f-49">
          <mxGeometry relative="1" as="geometry">
            <mxPoint x="-290" y="838.9999999999998" as="targetPoint" />
          </mxGeometry>
        </mxCell>
        <mxCell id="vnblUEhHMYSCbxSBya0f-49" value="" style="sketch=0;points=[[0,0,0],[0.25,0,0],[0.5,0,0],[0.75,0,0],[1,0,0],[0,1,0],[0.25,1,0],[0.5,1,0],[0.75,1,0],[1,1,0],[0,0.25,0],[0,0.5,0],[0,0.75,0],[1,0.25,0],[1,0.5,0],[1,0.75,0]];outlineConnect=0;fontColor=#232F3E;fillColor=#8C4FFF;strokeColor=#ffffff;dashed=0;verticalLabelPosition=bottom;verticalAlign=top;align=center;html=1;fontSize=12;fontStyle=0;aspect=fixed;shape=mxgraph.aws4.resourceIcon;resIcon=mxgraph.aws4.global_accelerator;container=0;" vertex="1" parent="1">
          <mxGeometry x="-440" y="800" width="78" height="78" as="geometry" />
        </mxCell>
        <mxCell id="vnblUEhHMYSCbxSBya0f-51" value="" style="endArrow=classic;startArrow=classic;html=1;rounded=0;entryX=0.5;entryY=1;entryDx=0;entryDy=0;entryPerimeter=0;" edge="1" parent="1" source="vnblUEhHMYSCbxSBya0f-46" target="vnblUEhHMYSCbxSBya0f-15">
          <mxGeometry width="50" height="50" relative="1" as="geometry">
            <mxPoint x="142" y="760" as="sourcePoint" />
            <mxPoint x="192" y="710" as="targetPoint" />
          </mxGeometry>
        </mxCell>
        <mxCell id="vnblUEhHMYSCbxSBya0f-56" style="edgeStyle=orthogonalEdgeStyle;rounded=0;orthogonalLoop=1;jettySize=auto;html=1;strokeColor=#009900;" edge="1" parent="1" source="vnblUEhHMYSCbxSBya0f-54" target="vnblUEhHMYSCbxSBya0f-14">
          <mxGeometry relative="1" as="geometry">
            <Array as="points">
              <mxPoint x="-160" y="760" />
            </Array>
          </mxGeometry>
        </mxCell>
        <mxCell id="vnblUEhHMYSCbxSBya0f-54" value="AWS WAF" style="sketch=0;outlineConnect=0;fontColor=#232F3E;gradientColor=none;strokeColor=#ffffff;fillColor=#232F3E;dashed=0;verticalLabelPosition=middle;verticalAlign=bottom;align=center;html=1;whiteSpace=wrap;fontSize=10;fontStyle=1;spacing=3;shape=mxgraph.aws4.productIcon;prIcon=mxgraph.aws4.waf;container=0;" vertex="1" parent="1">
          <mxGeometry x="-200" y="600" width="80" height="100" as="geometry" />
        </mxCell>
        <mxCell id="vnblUEhHMYSCbxSBya0f-67" style="edgeStyle=orthogonalEdgeStyle;rounded=0;orthogonalLoop=1;jettySize=auto;html=1;strokeColor=#0000FF;" edge="1" parent="1" source="vnblUEhHMYSCbxSBya0f-65" target="vnblUEhHMYSCbxSBya0f-30">
          <mxGeometry relative="1" as="geometry">
            <Array as="points">
              <mxPoint x="-240" y="1160" />
            </Array>
          </mxGeometry>
        </mxCell>
        <mxCell id="vnblUEhHMYSCbxSBya0f-68" style="edgeStyle=orthogonalEdgeStyle;rounded=0;orthogonalLoop=1;jettySize=auto;html=1;strokeColor=#0000FF;" edge="1" parent="1" source="vnblUEhHMYSCbxSBya0f-65" target="vnblUEhHMYSCbxSBya0f-9">
          <mxGeometry relative="1" as="geometry">
            <Array as="points">
              <mxPoint x="-240" y="280" />
            </Array>
          </mxGeometry>
        </mxCell>
        <mxCell id="vnblUEhHMYSCbxSBya0f-65" value="AWS WAF" style="sketch=0;outlineConnect=0;fontColor=#232F3E;gradientColor=none;strokeColor=#ffffff;fillColor=#232F3E;dashed=0;verticalLabelPosition=middle;verticalAlign=bottom;align=center;html=1;whiteSpace=wrap;fontSize=10;fontStyle=1;spacing=3;shape=mxgraph.aws4.productIcon;prIcon=mxgraph.aws4.waf;container=0;" vertex="1" parent="1">
          <mxGeometry x="-280" y="800" width="80" height="100" as="geometry" />
        </mxCell>
        <mxCell id="vnblUEhHMYSCbxSBya0f-73" style="edgeStyle=orthogonalEdgeStyle;rounded=0;orthogonalLoop=1;jettySize=auto;html=1;dashed=1;" edge="1" parent="1" source="vnblUEhHMYSCbxSBya0f-72" target="vnblUEhHMYSCbxSBya0f-54">
          <mxGeometry relative="1" as="geometry" />
        </mxCell>
        <mxCell id="vnblUEhHMYSCbxSBya0f-72" value="Amazon Route 53" style="sketch=0;outlineConnect=0;fontColor=#232F3E;gradientColor=none;strokeColor=#ffffff;fillColor=#232F3E;dashed=0;verticalLabelPosition=middle;verticalAlign=bottom;align=center;html=1;whiteSpace=wrap;fontSize=10;fontStyle=1;spacing=3;shape=mxgraph.aws4.productIcon;prIcon=mxgraph.aws4.route_53;container=0;" vertex="1" parent="1">
          <mxGeometry x="-440" y="595" width="80" height="110" as="geometry" />
        </mxCell>
        <mxCell id="vnblUEhHMYSCbxSBya0f-74" style="edgeStyle=orthogonalEdgeStyle;rounded=0;orthogonalLoop=1;jettySize=auto;html=1;entryX=0.5;entryY=0;entryDx=0;entryDy=0;entryPerimeter=0;dashed=1;" edge="1" parent="1" source="vnblUEhHMYSCbxSBya0f-72" target="vnblUEhHMYSCbxSBya0f-49">
          <mxGeometry relative="1" as="geometry" />
        </mxCell>
        <mxCell id="vnblUEhHMYSCbxSBya0f-81" value="" style="outlineConnect=0;dashed=0;verticalLabelPosition=bottom;verticalAlign=top;align=center;html=1;shape=mxgraph.aws3.iam;fillColor=#759C3E;gradientColor=none;container=0;" vertex="1" parent="1">
          <mxGeometry x="-420" y="1000" width="42" height="81" as="geometry" />
        </mxCell>
        <mxCell id="vnblUEhHMYSCbxSBya0f-3" value="Region A" style="points=[[0,0],[0.25,0],[0.5,0],[0.75,0],[1,0],[1,0.25],[1,0.5],[1,0.75],[1,1],[0.75,1],[0.5,1],[0.25,1],[0,1],[0,0.75],[0,0.5],[0,0.25]];outlineConnect=0;gradientColor=none;html=1;whiteSpace=wrap;fontSize=12;fontStyle=0;container=0;pointerEvents=0;collapsible=0;recursiveResize=0;shape=mxgraph.aws4.group;grIcon=mxgraph.aws4.group_region;strokeColor=#00A4A6;fillColor=none;verticalAlign=top;align=left;spacingLeft=30;fontColor=#147EBA;dashed=1;" vertex="1" parent="1">
          <mxGeometry x="80" y="80" width="1520" height="600" as="geometry" />
        </mxCell>
        <mxCell id="vnblUEhHMYSCbxSBya0f-78" value="Amazon ECR" style="sketch=0;outlineConnect=0;fontColor=#232F3E;gradientColor=none;strokeColor=#ffffff;fillColor=#232F3E;dashed=0;verticalLabelPosition=middle;verticalAlign=bottom;align=center;html=1;whiteSpace=wrap;fontSize=10;fontStyle=1;spacing=3;shape=mxgraph.aws4.productIcon;prIcon=mxgraph.aws4.ecr;container=0;" vertex="1" parent="1">
          <mxGeometry x="280" y="520" width="80" height="100" as="geometry" />
        </mxCell>
        <mxCell id="vnblUEhHMYSCbxSBya0f-25" value="Amazon S3" style="sketch=0;outlineConnect=0;fontColor=#232F3E;gradientColor=none;strokeColor=#ffffff;fillColor=#232F3E;dashed=0;verticalLabelPosition=middle;verticalAlign=bottom;align=center;html=1;whiteSpace=wrap;fontSize=10;fontStyle=1;spacing=3;shape=mxgraph.aws4.productIcon;prIcon=mxgraph.aws4.s3;container=0;" vertex="1" parent="1">
          <mxGeometry x="1360" y="520" width="80" height="100" as="geometry" />
        </mxCell>
        <mxCell id="vnblUEhHMYSCbxSBya0f-95" style="edgeStyle=orthogonalEdgeStyle;rounded=0;orthogonalLoop=1;jettySize=auto;html=1;entryX=0.5;entryY=1;entryDx=0;entryDy=0;entryPerimeter=0;" edge="1" parent="1" source="vnblUEhHMYSCbxSBya0f-93" target="vnblUEhHMYSCbxSBya0f-91">
          <mxGeometry relative="1" as="geometry" />
        </mxCell>
        <mxCell id="vnblUEhHMYSCbxSBya0f-96" value="" style="endArrow=classic;startArrow=classic;html=1;rounded=0;entryX=0.5;entryY=1;entryDx=0;entryDy=0;entryPerimeter=0;" edge="1" parent="1">
          <mxGeometry width="50" height="50" relative="1" as="geometry">
            <mxPoint x="319.5" y="878" as="sourcePoint" />
            <mxPoint x="319.5" y="618" as="targetPoint" />
          </mxGeometry>
        </mxCell>
        <mxCell id="vnblUEhHMYSCbxSBya0f-97" value="" style="endArrow=classic;startArrow=classic;html=1;rounded=0;" edge="1" parent="1">
          <mxGeometry width="50" height="50" relative="1" as="geometry">
            <mxPoint x="480" y="880" as="sourcePoint" />
            <mxPoint x="480" y="630" as="targetPoint" />
          </mxGeometry>
        </mxCell>
        <mxCell id="vnblUEhHMYSCbxSBya0f-100" value="Finding Aggregation" style="text;html=1;align=center;verticalAlign=middle;whiteSpace=wrap;rounded=0;rotation=-90;container=0;" vertex="1" parent="1">
          <mxGeometry x="600" y="725" width="110" height="30" as="geometry" />
        </mxCell>
        <mxCell id="vnblUEhHMYSCbxSBya0f-104" value="Secret Manager CRR" style="text;html=1;align=center;verticalAlign=middle;whiteSpace=wrap;rounded=0;rotation=-90;container=0;" vertex="1" parent="1">
          <mxGeometry x="440" y="725" width="120" height="30" as="geometry" />
        </mxCell>
        <mxCell id="vnblUEhHMYSCbxSBya0f-106" value="ECR CRR" style="text;html=1;align=center;verticalAlign=middle;whiteSpace=wrap;rounded=0;rotation=-90;container=0;" vertex="1" parent="1">
          <mxGeometry x="280" y="725" width="120" height="30" as="geometry" />
        </mxCell>
        <mxCell id="vnblUEhHMYSCbxSBya0f-107" value="S3 CRR" style="text;html=1;align=center;verticalAlign=middle;whiteSpace=wrap;rounded=0;rotation=-90;container=0;" vertex="1" parent="1">
          <mxGeometry x="132" y="725" width="120" height="30" as="geometry" />
        </mxCell>
        <mxCell id="vnblUEhHMYSCbxSBya0f-108" value="VPC Peering" style="text;html=1;align=center;verticalAlign=middle;whiteSpace=wrap;rounded=0;container=0;" vertex="1" parent="1">
          <mxGeometry x="1040" y="740" width="101" height="30" as="geometry" />
        </mxCell>
        <mxCell id="vnblUEhHMYSCbxSBya0f-109" value="1. RDS Read Replica&lt;br&gt;2. ElasticCache for Redis, global datastore&lt;br&gt;3. Amazon MQ CRR" style="text;html=1;align=left;verticalAlign=middle;whiteSpace=wrap;rounded=0;rotation=-90;container=0;" vertex="1" parent="1">
          <mxGeometry x="730" y="720" width="240" height="60" as="geometry" />
        </mxCell>
        <mxCell id="vnblUEhHMYSCbxSBya0f-113" value="" style="endArrow=classic;html=1;rounded=0;" edge="1" parent="1" target="vnblUEhHMYSCbxSBya0f-25">
          <mxGeometry width="50" height="50" relative="1" as="geometry">
            <mxPoint x="1400" y="440" as="sourcePoint" />
            <mxPoint x="1430" y="450" as="targetPoint" />
          </mxGeometry>
        </mxCell>
        <mxCell id="vnblUEhHMYSCbxSBya0f-120" value="AWS Global Accelerator" style="text;html=1;align=center;verticalAlign=middle;whiteSpace=wrap;rounded=0;container=0;" vertex="1" parent="1">
          <mxGeometry x="-480.5" y="878" width="159" height="30" as="geometry" />
        </mxCell>
        <mxCell id="vnblUEhHMYSCbxSBya0f-121" value="IAM" style="text;html=1;align=center;verticalAlign=middle;whiteSpace=wrap;rounded=0;container=0;" vertex="1" parent="1">
          <mxGeometry x="-418.25" y="1085" width="38.5" height="30" as="geometry" />
        </mxCell>
        <mxCell id="vnblUEhHMYSCbxSBya0f-29" value="VPC Backup" style="points=[[0,0],[0.25,0],[0.5,0],[0.75,0],[1,0],[1,0.25],[1,0.5],[1,0.75],[1,1],[0.75,1],[0.5,1],[0.25,1],[0,1],[0,0.75],[0,0.5],[0,0.25]];outlineConnect=0;gradientColor=none;html=1;whiteSpace=wrap;fontSize=12;fontStyle=0;container=0;pointerEvents=0;collapsible=0;recursiveResize=0;shape=mxgraph.aws4.group;grIcon=mxgraph.aws4.group_vpc2;strokeColor=#8C4FFF;fillColor=none;verticalAlign=top;align=left;spacingLeft=30;fontColor=#AAB7B8;dashed=0;" vertex="1" parent="1">
          <mxGeometry x="120" y="1000" width="840" height="360" as="geometry" />
        </mxCell>
        <mxCell id="vnblUEhHMYSCbxSBya0f-46" value="Amazon S3" style="sketch=0;outlineConnect=0;fontColor=#232F3E;gradientColor=none;strokeColor=#ffffff;fillColor=#232F3E;dashed=0;verticalLabelPosition=middle;verticalAlign=bottom;align=center;html=1;whiteSpace=wrap;fontSize=10;fontStyle=1;spacing=3;shape=mxgraph.aws4.productIcon;prIcon=mxgraph.aws4.s3;container=0;" vertex="1" parent="1">
          <mxGeometry x="132" y="880" width="80" height="100" as="geometry" />
        </mxCell>
        <mxCell id="vnblUEhHMYSCbxSBya0f-77" value="Amazon ECR" style="sketch=0;outlineConnect=0;fontColor=#232F3E;gradientColor=none;strokeColor=#ffffff;fillColor=#232F3E;dashed=0;verticalLabelPosition=middle;verticalAlign=bottom;align=center;html=1;whiteSpace=wrap;fontSize=10;fontStyle=1;spacing=3;shape=mxgraph.aws4.productIcon;prIcon=mxgraph.aws4.ecr;container=0;" vertex="1" parent="1">
          <mxGeometry x="280" y="880" width="80" height="100" as="geometry" />
        </mxCell>
        <mxCell id="vnblUEhHMYSCbxSBya0f-80" value="AWS Secrets Manager" style="sketch=0;outlineConnect=0;fontColor=#232F3E;gradientColor=none;strokeColor=#ffffff;fillColor=#232F3E;dashed=0;verticalLabelPosition=middle;verticalAlign=bottom;align=center;html=1;whiteSpace=wrap;fontSize=10;fontStyle=1;spacing=3;shape=mxgraph.aws4.productIcon;prIcon=mxgraph.aws4.secrets_manager;container=0;" vertex="1" parent="1">
          <mxGeometry x="440" y="880" width="80" height="110" as="geometry" />
        </mxCell>
        <mxCell id="vnblUEhHMYSCbxSBya0f-88" style="edgeStyle=orthogonalEdgeStyle;rounded=0;orthogonalLoop=1;jettySize=auto;html=1;" edge="1" parent="1" source="vnblUEhHMYSCbxSBya0f-48" target="vnblUEhHMYSCbxSBya0f-29">
          <mxGeometry relative="1" as="geometry">
            <Array as="points">
              <mxPoint x="1000" y="880" />
              <mxPoint x="920" y="880" />
            </Array>
          </mxGeometry>
        </mxCell>
        <mxCell id="vnblUEhHMYSCbxSBya0f-93" value="" style="sketch=0;outlineConnect=0;fontColor=#232F3E;gradientColor=none;fillColor=#DD344C;strokeColor=none;dashed=0;verticalLabelPosition=bottom;verticalAlign=top;align=center;html=1;fontSize=12;fontStyle=0;aspect=fixed;pointerEvents=1;shape=mxgraph.aws4.finding;container=0;" vertex="1" parent="1">
          <mxGeometry x="605" y="880" width="70" height="78" as="geometry" />
        </mxCell>
        <mxCell id="vnblUEhHMYSCbxSBya0f-102" value="Findings" style="text;html=1;align=center;verticalAlign=middle;whiteSpace=wrap;rounded=0;container=0;" vertex="1" parent="1">
          <mxGeometry x="610" y="958" width="60" height="30" as="geometry" />
        </mxCell>
        <mxCell id="vnblUEhHMYSCbxSBya0f-6" value="VPC Main" style="points=[[0,0],[0.25,0],[0.5,0],[0.75,0],[1,0],[1,0.25],[1,0.5],[1,0.75],[1,1],[0.75,1],[0.5,1],[0.25,1],[0,1],[0,0.75],[0,0.5],[0,0.25]];outlineConnect=0;gradientColor=none;html=1;whiteSpace=wrap;fontSize=12;fontStyle=0;container=0;pointerEvents=0;collapsible=0;recursiveResize=0;shape=mxgraph.aws4.group;grIcon=mxgraph.aws4.group_vpc2;strokeColor=#8C4FFF;fillColor=none;verticalAlign=top;align=left;spacingLeft=30;fontColor=#AAB7B8;dashed=0;" vertex="1" parent="1">
          <mxGeometry x="120" y="120" width="840" height="360" as="geometry" />
        </mxCell>
        <mxCell id="vnblUEhHMYSCbxSBya0f-15" value="Amazon S3" style="sketch=0;outlineConnect=0;fontColor=#232F3E;gradientColor=none;strokeColor=#ffffff;fillColor=#232F3E;dashed=0;verticalLabelPosition=middle;verticalAlign=bottom;align=center;html=1;whiteSpace=wrap;fontSize=10;fontStyle=1;spacing=3;shape=mxgraph.aws4.productIcon;prIcon=mxgraph.aws4.s3;container=0;" vertex="1" parent="1">
          <mxGeometry x="132" y="520" width="80" height="100" as="geometry" />
        </mxCell>
        <mxCell id="vnblUEhHMYSCbxSBya0f-17" value="VPC Admin" style="points=[[0,0],[0.25,0],[0.5,0],[0.75,0],[1,0],[1,0.25],[1,0.5],[1,0.75],[1,1],[0.75,1],[0.5,1],[0.25,1],[0,1],[0,0.75],[0,0.5],[0,0.25]];outlineConnect=0;gradientColor=none;html=1;whiteSpace=wrap;fontSize=12;fontStyle=0;container=0;pointerEvents=0;collapsible=0;recursiveResize=0;shape=mxgraph.aws4.group;grIcon=mxgraph.aws4.group_vpc2;strokeColor=#8C4FFF;fillColor=none;verticalAlign=top;align=left;spacingLeft=30;fontColor=#AAB7B8;dashed=0;" vertex="1" parent="1">
          <mxGeometry x="1039" y="120" width="520" height="360" as="geometry" />
        </mxCell>
        <mxCell id="vnblUEhHMYSCbxSBya0f-79" value="AWS Secrets Manager" style="sketch=0;outlineConnect=0;fontColor=#232F3E;gradientColor=none;strokeColor=#ffffff;fillColor=#232F3E;dashed=0;verticalLabelPosition=middle;verticalAlign=bottom;align=center;html=1;whiteSpace=wrap;fontSize=10;fontStyle=1;spacing=3;shape=mxgraph.aws4.productIcon;prIcon=mxgraph.aws4.secrets_manager;container=0;" vertex="1" parent="1">
          <mxGeometry x="440" y="520" width="80" height="110" as="geometry" />
        </mxCell>
        <mxCell id="vnblUEhHMYSCbxSBya0f-91" value="" style="sketch=0;points=[[0,0,0],[0.25,0,0],[0.5,0,0],[0.75,0,0],[1,0,0],[0,1,0],[0.25,1,0],[0.5,1,0],[0.75,1,0],[1,1,0],[0,0.25,0],[0,0.5,0],[0,0.75,0],[1,0.25,0],[1,0.5,0],[1,0.75,0]];outlineConnect=0;fontColor=#232F3E;fillColor=#DD344C;strokeColor=#ffffff;dashed=0;verticalLabelPosition=bottom;verticalAlign=top;align=center;html=1;fontSize=12;fontStyle=0;aspect=fixed;shape=mxgraph.aws4.resourceIcon;resIcon=mxgraph.aws4.security_hub;container=0;" vertex="1" parent="1">
          <mxGeometry x="600" y="520" width="80" height="80" as="geometry" />
        </mxCell>
        <mxCell id="vnblUEhHMYSCbxSBya0f-94" style="edgeStyle=orthogonalEdgeStyle;rounded=0;orthogonalLoop=1;jettySize=auto;html=1;" edge="1" parent="1" source="vnblUEhHMYSCbxSBya0f-92" target="vnblUEhHMYSCbxSBya0f-91">
          <mxGeometry relative="1" as="geometry" />
        </mxCell>
        <mxCell id="vnblUEhHMYSCbxSBya0f-92" value="" style="sketch=0;outlineConnect=0;fontColor=#232F3E;gradientColor=none;fillColor=#DD344C;strokeColor=none;dashed=0;verticalLabelPosition=bottom;verticalAlign=top;align=center;html=1;fontSize=12;fontStyle=0;aspect=fixed;pointerEvents=1;shape=mxgraph.aws4.finding;container=0;" vertex="1" parent="1">
          <mxGeometry x="760" y="520" width="70" height="78" as="geometry" />
        </mxCell>
        <mxCell id="vnblUEhHMYSCbxSBya0f-99" value="" style="endArrow=classic;startArrow=classic;html=1;rounded=0;exitX=0.854;exitY=-0.014;exitDx=0;exitDy=0;exitPerimeter=0;" edge="1" parent="1" source="vnblUEhHMYSCbxSBya0f-35">
          <mxGeometry width="50" height="50" relative="1" as="geometry">
            <mxPoint x="880" y="690" as="sourcePoint" />
            <mxPoint x="880" y="440" as="targetPoint" />
          </mxGeometry>
        </mxCell>
        <mxCell id="vnblUEhHMYSCbxSBya0f-101" value="Findings" style="text;html=1;align=center;verticalAlign=middle;whiteSpace=wrap;rounded=0;container=0;" vertex="1" parent="1">
          <mxGeometry x="765" y="595" width="60" height="30" as="geometry" />
        </mxCell>
        <mxCell id="vnblUEhHMYSCbxSBya0f-103" value="Security Hub" style="text;html=1;align=center;verticalAlign=middle;whiteSpace=wrap;rounded=0;container=0;" vertex="1" parent="1">
          <mxGeometry x="600" y="490" width="80" height="30" as="geometry" />
        </mxCell>
        <mxCell id="vnblUEhHMYSCbxSBya0f-126" value="Log Backup" style="text;html=1;align=center;verticalAlign=middle;whiteSpace=wrap;rounded=0;container=0;" vertex="1" parent="1">
          <mxGeometry x="1440" y="545" width="70" height="30" as="geometry" />
        </mxCell>
        <mxCell id="vnblUEhHMYSCbxSBya0f-140" value="VPN site-2-site" style="text;html=1;align=center;verticalAlign=middle;whiteSpace=wrap;rounded=0;container=0;" vertex="1" parent="1">
          <mxGeometry x="1700" y="290" width="90" height="30" as="geometry" />
        </mxCell>
        <mxCell id="vnblUEhHMYSCbxSBya0f-30" value="Public subnet" style="points=[[0,0],[0.25,0],[0.5,0],[0.75,0],[1,0],[1,0.25],[1,0.5],[1,0.75],[1,1],[0.75,1],[0.5,1],[0.25,1],[0,1],[0,0.75],[0,0.5],[0,0.25]];outlineConnect=0;gradientColor=none;html=1;whiteSpace=wrap;fontSize=12;fontStyle=0;container=0;pointerEvents=0;collapsible=0;recursiveResize=0;shape=mxgraph.aws4.group;grIcon=mxgraph.aws4.group_security_group;grStroke=0;strokeColor=#7AA116;fillColor=#F2F6E8;verticalAlign=top;align=left;spacingLeft=30;fontColor=#248814;dashed=0;" vertex="1" parent="1">
          <mxGeometry x="160" y="1040" width="200" height="280" as="geometry" />
        </mxCell>
        <mxCell id="vnblUEhHMYSCbxSBya0f-32" value="Private subnet" style="points=[[0,0],[0.25,0],[0.5,0],[0.75,0],[1,0],[1,0.25],[1,0.5],[1,0.75],[1,1],[0.75,1],[0.5,1],[0.25,1],[0,1],[0,0.75],[0,0.5],[0,0.25]];outlineConnect=0;gradientColor=none;html=1;whiteSpace=wrap;fontSize=12;fontStyle=0;container=0;pointerEvents=0;collapsible=0;recursiveResize=0;shape=mxgraph.aws4.group;grIcon=mxgraph.aws4.group_security_group;grStroke=0;strokeColor=#00A4A6;fillColor=#E6F6F7;verticalAlign=top;align=left;spacingLeft=30;fontColor=#147EBA;dashed=0;" vertex="1" parent="1">
          <mxGeometry x="400" y="1040" width="200" height="280" as="geometry" />
        </mxCell>
        <mxCell id="vnblUEhHMYSCbxSBya0f-35" value="Private subnet" style="points=[[0,0],[0.25,0],[0.5,0],[0.75,0],[1,0],[1,0.25],[1,0.5],[1,0.75],[1,1],[0.75,1],[0.5,1],[0.25,1],[0,1],[0,0.75],[0,0.5],[0,0.25]];outlineConnect=0;gradientColor=none;html=1;whiteSpace=wrap;fontSize=12;fontStyle=0;container=0;pointerEvents=0;collapsible=0;recursiveResize=0;shape=mxgraph.aws4.group;grIcon=mxgraph.aws4.group_security_group;grStroke=0;strokeColor=#00A4A6;fillColor=#E6F6F7;verticalAlign=top;align=left;spacingLeft=30;fontColor=#147EBA;dashed=0;" vertex="1" parent="1">
          <mxGeometry x="640" y="1040" width="280" height="280" as="geometry" />
        </mxCell>
        <mxCell id="vnblUEhHMYSCbxSBya0f-114" value="" style="endArrow=classic;html=1;rounded=0;exitX=1;exitY=0.5;exitDx=0;exitDy=0;" edge="1" parent="1">
          <mxGeometry width="50" height="50" relative="1" as="geometry">
            <mxPoint x="360" y="1179.44" as="sourcePoint" />
            <mxPoint x="400" y="1179.44" as="targetPoint" />
          </mxGeometry>
        </mxCell>
        <mxCell id="vnblUEhHMYSCbxSBya0f-115" value="" style="endArrow=classic;html=1;rounded=0;exitX=1;exitY=0.5;exitDx=0;exitDy=0;" edge="1" parent="1">
          <mxGeometry width="50" height="50" relative="1" as="geometry">
            <mxPoint x="600" y="1179.44" as="sourcePoint" />
            <mxPoint x="640" y="1179.44" as="targetPoint" />
          </mxGeometry>
        </mxCell>
        <mxCell id="vnblUEhHMYSCbxSBya0f-31" value="Application Load Balancer" style="sketch=0;outlineConnect=0;fontColor=#232F3E;gradientColor=none;strokeColor=#ffffff;fillColor=#232F3E;dashed=0;verticalLabelPosition=middle;verticalAlign=bottom;align=center;html=1;whiteSpace=wrap;fontSize=10;fontStyle=1;spacing=3;shape=mxgraph.aws4.productIcon;prIcon=mxgraph.aws4.application_load_balancer;container=0;" vertex="1" parent="1">
          <mxGeometry x="200" y="1120" width="80" height="110" as="geometry" />
        </mxCell>
        <mxCell id="vnblUEhHMYSCbxSBya0f-33" value="Amazon EKS" style="sketch=0;outlineConnect=0;fontColor=#232F3E;gradientColor=none;strokeColor=#ffffff;fillColor=#232F3E;dashed=0;verticalLabelPosition=middle;verticalAlign=bottom;align=center;html=1;whiteSpace=wrap;fontSize=10;fontStyle=1;spacing=3;shape=mxgraph.aws4.productIcon;prIcon=mxgraph.aws4.eks;container=0;" vertex="1" parent="1">
          <mxGeometry x="440" y="1080" width="80" height="100" as="geometry" />
        </mxCell>
        <mxCell id="vnblUEhHMYSCbxSBya0f-34" value="AWS Auto Scaling" style="sketch=0;outlineConnect=0;fontColor=#232F3E;gradientColor=none;strokeColor=#ffffff;fillColor=#232F3E;dashed=0;verticalLabelPosition=middle;verticalAlign=bottom;align=center;html=1;whiteSpace=wrap;fontSize=10;fontStyle=1;spacing=3;shape=mxgraph.aws4.productIcon;prIcon=mxgraph.aws4.autoscaling;container=0;" vertex="1" parent="1">
          <mxGeometry x="440" y="1200" width="80" height="110" as="geometry" />
        </mxCell>
        <mxCell id="vnblUEhHMYSCbxSBya0f-118" value="Blockchain Nodes" style="text;html=1;align=center;verticalAlign=middle;whiteSpace=wrap;rounded=0;container=0;" vertex="1" parent="1">
          <mxGeometry x="520" y="1227.5" width="80" height="30" as="geometry" />
        </mxCell>
        <mxCell id="vnblUEhHMYSCbxSBya0f-119" value="Wallet, DApp,..." style="text;html=1;align=center;verticalAlign=middle;whiteSpace=wrap;rounded=0;container=0;" vertex="1" parent="1">
          <mxGeometry x="525" y="1102.5" width="70" height="30" as="geometry" />
        </mxCell>
        <mxCell id="vnblUEhHMYSCbxSBya0f-82" value="Amazon ElastiCache" style="sketch=0;outlineConnect=0;fontColor=#232F3E;gradientColor=none;strokeColor=#ffffff;fillColor=#232F3E;dashed=0;verticalLabelPosition=middle;verticalAlign=bottom;align=center;html=1;whiteSpace=wrap;fontSize=10;fontStyle=1;spacing=3;shape=mxgraph.aws4.productIcon;prIcon=mxgraph.aws4.elasticache;container=0;" vertex="1" parent="1">
          <mxGeometry x="800" y="1080" width="80" height="110" as="geometry" />
        </mxCell>
        <mxCell id="vnblUEhHMYSCbxSBya0f-86" value="Amazon MQ" style="sketch=0;outlineConnect=0;fontColor=#232F3E;gradientColor=none;strokeColor=#ffffff;fillColor=#232F3E;dashed=0;verticalLabelPosition=middle;verticalAlign=bottom;align=center;html=1;whiteSpace=wrap;fontSize=10;fontStyle=1;spacing=3;shape=mxgraph.aws4.productIcon;prIcon=mxgraph.aws4.mq;container=0;" vertex="1" parent="1">
          <mxGeometry x="800" y="1200" width="80" height="100" as="geometry" />
        </mxCell>
        <mxCell id="vnblUEhHMYSCbxSBya0f-9" value="Public subnet" style="points=[[0,0],[0.25,0],[0.5,0],[0.75,0],[1,0],[1,0.25],[1,0.5],[1,0.75],[1,1],[0.75,1],[0.5,1],[0.25,1],[0,1],[0,0.75],[0,0.5],[0,0.25]];outlineConnect=0;gradientColor=none;html=1;whiteSpace=wrap;fontSize=12;fontStyle=0;container=0;pointerEvents=0;collapsible=0;recursiveResize=0;shape=mxgraph.aws4.group;grIcon=mxgraph.aws4.group_security_group;grStroke=0;strokeColor=#7AA116;fillColor=#F2F6E8;verticalAlign=top;align=left;spacingLeft=30;fontColor=#248814;dashed=0;" vertex="1" parent="1">
          <mxGeometry x="160" y="160" width="200" height="280" as="geometry" />
        </mxCell>
        <mxCell id="vnblUEhHMYSCbxSBya0f-10" value="Private subnet" style="points=[[0,0],[0.25,0],[0.5,0],[0.75,0],[1,0],[1,0.25],[1,0.5],[1,0.75],[1,1],[0.75,1],[0.5,1],[0.25,1],[0,1],[0,0.75],[0,0.5],[0,0.25]];outlineConnect=0;gradientColor=none;html=1;whiteSpace=wrap;fontSize=12;fontStyle=0;container=0;pointerEvents=0;collapsible=0;recursiveResize=0;shape=mxgraph.aws4.group;grIcon=mxgraph.aws4.group_security_group;grStroke=0;strokeColor=#00A4A6;fillColor=#E6F6F7;verticalAlign=top;align=left;spacingLeft=30;fontColor=#147EBA;dashed=0;" vertex="1" parent="1">
          <mxGeometry x="400" y="160" width="200" height="280" as="geometry" />
        </mxCell>
        <mxCell id="vnblUEhHMYSCbxSBya0f-13" value="Private subnet" style="points=[[0,0],[0.25,0],[0.5,0],[0.75,0],[1,0],[1,0.25],[1,0.5],[1,0.75],[1,1],[0.75,1],[0.5,1],[0.25,1],[0,1],[0,0.75],[0,0.5],[0,0.25]];outlineConnect=0;gradientColor=none;html=1;whiteSpace=wrap;fontSize=12;fontStyle=0;container=0;pointerEvents=0;collapsible=0;recursiveResize=0;shape=mxgraph.aws4.group;grIcon=mxgraph.aws4.group_security_group;grStroke=0;strokeColor=#00A4A6;fillColor=#E6F6F7;verticalAlign=top;align=left;spacingLeft=30;fontColor=#147EBA;dashed=0;" vertex="1" parent="1">
          <mxGeometry x="640" y="160" width="280" height="280" as="geometry" />
        </mxCell>
        <mxCell id="vnblUEhHMYSCbxSBya0f-110" value="" style="endArrow=classic;html=1;rounded=0;exitX=1;exitY=0.5;exitDx=0;exitDy=0;" edge="1" parent="1" source="vnblUEhHMYSCbxSBya0f-9" target="vnblUEhHMYSCbxSBya0f-10">
          <mxGeometry width="50" height="50" relative="1" as="geometry">
            <mxPoint x="310" y="400" as="sourcePoint" />
            <mxPoint x="360" y="350" as="targetPoint" />
          </mxGeometry>
        </mxCell>
        <mxCell id="vnblUEhHMYSCbxSBya0f-111" value="" style="endArrow=classic;html=1;rounded=0;exitX=1;exitY=0.5;exitDx=0;exitDy=0;" edge="1" parent="1">
          <mxGeometry width="50" height="50" relative="1" as="geometry">
            <mxPoint x="600" y="299.5" as="sourcePoint" />
            <mxPoint x="640" y="299.5" as="targetPoint" />
          </mxGeometry>
        </mxCell>
        <mxCell id="vnblUEhHMYSCbxSBya0f-8" value="Application Load Balancer" style="sketch=0;outlineConnect=0;fontColor=#232F3E;gradientColor=none;strokeColor=#ffffff;fillColor=#232F3E;dashed=0;verticalLabelPosition=middle;verticalAlign=bottom;align=center;html=1;whiteSpace=wrap;fontSize=10;fontStyle=1;spacing=3;shape=mxgraph.aws4.productIcon;prIcon=mxgraph.aws4.application_load_balancer;container=0;" vertex="1" parent="1">
          <mxGeometry x="200" y="240" width="80" height="110" as="geometry" />
        </mxCell>
        <mxCell id="vnblUEhHMYSCbxSBya0f-11" value="Amazon EKS" style="sketch=0;outlineConnect=0;fontColor=#232F3E;gradientColor=none;strokeColor=#ffffff;fillColor=#232F3E;dashed=0;verticalLabelPosition=middle;verticalAlign=bottom;align=center;html=1;whiteSpace=wrap;fontSize=10;fontStyle=1;spacing=3;shape=mxgraph.aws4.productIcon;prIcon=mxgraph.aws4.eks;container=0;" vertex="1" parent="1">
          <mxGeometry x="440" y="200" width="80" height="100" as="geometry" />
        </mxCell>
        <mxCell id="vnblUEhHMYSCbxSBya0f-16" value="AWS Auto Scaling" style="sketch=0;outlineConnect=0;fontColor=#232F3E;gradientColor=none;strokeColor=#ffffff;fillColor=#232F3E;dashed=0;verticalLabelPosition=middle;verticalAlign=bottom;align=center;html=1;whiteSpace=wrap;fontSize=10;fontStyle=1;spacing=3;shape=mxgraph.aws4.productIcon;prIcon=mxgraph.aws4.autoscaling;container=0;" vertex="1" parent="1">
          <mxGeometry x="440" y="320" width="80" height="110" as="geometry" />
        </mxCell>
        <mxCell id="vnblUEhHMYSCbxSBya0f-116" value="Blockchain Nodes" style="text;html=1;align=center;verticalAlign=middle;whiteSpace=wrap;rounded=0;container=0;" vertex="1" parent="1">
          <mxGeometry x="520" y="360" width="80" height="30" as="geometry" />
        </mxCell>
        <mxCell id="vnblUEhHMYSCbxSBya0f-117" value="Wallet, DApp,..." style="text;html=1;align=center;verticalAlign=middle;whiteSpace=wrap;rounded=0;container=0;" vertex="1" parent="1">
          <mxGeometry x="525" y="235" width="70" height="30" as="geometry" />
        </mxCell>
        <mxCell id="vnblUEhHMYSCbxSBya0f-83" value="Amazon ElastiCache" style="sketch=0;outlineConnect=0;fontColor=#232F3E;gradientColor=none;strokeColor=#ffffff;fillColor=#232F3E;dashed=0;verticalLabelPosition=middle;verticalAlign=bottom;align=center;html=1;whiteSpace=wrap;fontSize=10;fontStyle=1;spacing=3;shape=mxgraph.aws4.productIcon;prIcon=mxgraph.aws4.elasticache;container=0;" vertex="1" parent="1">
          <mxGeometry x="800" y="200" width="80" height="110" as="geometry" />
        </mxCell>
        <mxCell id="vnblUEhHMYSCbxSBya0f-85" value="Amazon MQ" style="sketch=0;outlineConnect=0;fontColor=#232F3E;gradientColor=none;strokeColor=#ffffff;fillColor=#232F3E;dashed=0;verticalLabelPosition=middle;verticalAlign=bottom;align=center;html=1;whiteSpace=wrap;fontSize=10;fontStyle=1;spacing=3;shape=mxgraph.aws4.productIcon;prIcon=mxgraph.aws4.mq;container=0;" vertex="1" parent="1">
          <mxGeometry x="800" y="320" width="80" height="100" as="geometry" />
        </mxCell>
        <mxCell id="vnblUEhHMYSCbxSBya0f-18" value="Public subnet" style="points=[[0,0],[0.25,0],[0.5,0],[0.75,0],[1,0],[1,0.25],[1,0.5],[1,0.75],[1,1],[0.75,1],[0.5,1],[0.25,1],[0,1],[0,0.75],[0,0.5],[0,0.25]];outlineConnect=0;gradientColor=none;html=1;whiteSpace=wrap;fontSize=12;fontStyle=0;container=0;pointerEvents=0;collapsible=0;recursiveResize=0;shape=mxgraph.aws4.group;grIcon=mxgraph.aws4.group_security_group;grStroke=0;strokeColor=#7AA116;fillColor=#F2F6E8;verticalAlign=top;align=left;spacingLeft=30;fontColor=#248814;dashed=0;" vertex="1" parent="1">
          <mxGeometry x="1079" y="160" width="200" height="280" as="geometry" />
        </mxCell>
        <mxCell id="vnblUEhHMYSCbxSBya0f-19" value="Private subnet" style="points=[[0,0],[0.25,0],[0.5,0],[0.75,0],[1,0],[1,0.25],[1,0.5],[1,0.75],[1,1],[0.75,1],[0.5,1],[0.25,1],[0,1],[0,0.75],[0,0.5],[0,0.25]];outlineConnect=0;gradientColor=none;html=1;whiteSpace=wrap;fontSize=12;fontStyle=0;container=0;pointerEvents=0;collapsible=0;recursiveResize=0;shape=mxgraph.aws4.group;grIcon=mxgraph.aws4.group_security_group;grStroke=0;strokeColor=#00A4A6;fillColor=#E6F6F7;verticalAlign=top;align=left;spacingLeft=30;fontColor=#147EBA;dashed=0;" vertex="1" parent="1">
          <mxGeometry x="1319" y="160" width="200" height="280" as="geometry" />
        </mxCell>
        <mxCell id="vnblUEhHMYSCbxSBya0f-112" value="" style="endArrow=classic;html=1;rounded=0;exitX=1;exitY=0.5;exitDx=0;exitDy=0;" edge="1" parent="1">
          <mxGeometry width="50" height="50" relative="1" as="geometry">
            <mxPoint x="1280" y="299.5" as="sourcePoint" />
            <mxPoint x="1320" y="299.5" as="targetPoint" />
          </mxGeometry>
        </mxCell>
        <mxCell id="vnblUEhHMYSCbxSBya0f-21" value="Amazon EKS" style="sketch=0;outlineConnect=0;fontColor=#232F3E;gradientColor=none;strokeColor=#ffffff;fillColor=#232F3E;dashed=0;verticalLabelPosition=middle;verticalAlign=bottom;align=center;html=1;whiteSpace=wrap;fontSize=10;fontStyle=1;spacing=3;shape=mxgraph.aws4.productIcon;prIcon=mxgraph.aws4.eks;container=0;" vertex="1" parent="1">
          <mxGeometry x="1359" y="320" width="80" height="100" as="geometry" />
        </mxCell>
        <mxCell id="vnblUEhHMYSCbxSBya0f-23" value="" style="sketch=0;points=[[0,0,0],[0.25,0,0],[0.5,0,0],[0.75,0,0],[1,0,0],[0,1,0],[0.25,1,0],[0.5,1,0],[0.75,1,0],[1,1,0],[0,0.25,0],[0,0.5,0],[0,0.75,0],[1,0.25,0],[1,0.5,0],[1,0.75,0]];outlineConnect=0;fontColor=#232F3E;fillColor=#ED7100;strokeColor=#ffffff;dashed=0;verticalLabelPosition=bottom;verticalAlign=top;align=center;html=1;fontSize=12;fontStyle=0;aspect=fixed;shape=mxgraph.aws4.resourceIcon;resIcon=mxgraph.aws4.ec2;container=0;" vertex="1" parent="1">
          <mxGeometry x="1359" y="200" width="78" height="78" as="geometry" />
        </mxCell>
        <mxCell id="vnblUEhHMYSCbxSBya0f-124" value="SIEM Nodes" style="text;html=1;align=center;verticalAlign=middle;whiteSpace=wrap;rounded=0;container=0;" vertex="1" parent="1">
          <mxGeometry x="1437" y="224" width="80" height="30" as="geometry" />
        </mxCell>
        <mxCell id="vnblUEhHMYSCbxSBya0f-125" value="Monitoring, Logging,..." style="text;html=1;align=center;verticalAlign=middle;whiteSpace=wrap;rounded=0;container=0;" vertex="1" parent="1">
          <mxGeometry x="1442" y="355" width="70" height="30" as="geometry" />
        </mxCell>
        <mxCell id="vnblUEhHMYSCbxSBya0f-12" value="Amazon RDS" style="sketch=0;outlineConnect=0;fontColor=#232F3E;gradientColor=none;strokeColor=#ffffff;fillColor=#232F3E;dashed=0;verticalLabelPosition=middle;verticalAlign=bottom;align=center;html=1;whiteSpace=wrap;fontSize=10;fontStyle=1;spacing=3;shape=mxgraph.aws4.productIcon;prIcon=mxgraph.aws4.rds;container=0;" vertex="1" parent="1">
          <mxGeometry x="680" y="200" width="80" height="100" as="geometry" />
        </mxCell>
        <mxCell id="vnblUEhHMYSCbxSBya0f-24" value="Amazon RDS" style="sketch=0;outlineConnect=0;fontColor=#232F3E;gradientColor=none;strokeColor=#ffffff;fillColor=#232F3E;dashed=0;verticalLabelPosition=middle;verticalAlign=bottom;align=center;html=1;whiteSpace=wrap;fontSize=10;fontStyle=1;spacing=3;shape=mxgraph.aws4.productIcon;prIcon=mxgraph.aws4.rds;container=0;" vertex="1" parent="1">
          <mxGeometry x="680" y="320" width="80" height="100" as="geometry" />
        </mxCell>
        <mxCell id="vnblUEhHMYSCbxSBya0f-44" value="Amazon RDS" style="sketch=0;outlineConnect=0;fontColor=#232F3E;gradientColor=none;strokeColor=#ffffff;fillColor=#232F3E;dashed=0;verticalLabelPosition=middle;verticalAlign=bottom;align=center;html=1;whiteSpace=wrap;fontSize=10;fontStyle=1;spacing=3;shape=mxgraph.aws4.productIcon;prIcon=mxgraph.aws4.rds;container=0;" vertex="1" parent="1">
          <mxGeometry x="680" y="1080" width="80" height="100" as="geometry" />
        </mxCell>
        <mxCell id="vnblUEhHMYSCbxSBya0f-20" value="Application Load Balancer" style="sketch=0;outlineConnect=0;fontColor=#232F3E;gradientColor=none;strokeColor=#ffffff;fillColor=#232F3E;dashed=0;verticalLabelPosition=middle;verticalAlign=bottom;align=center;html=1;whiteSpace=wrap;fontSize=10;fontStyle=1;spacing=3;shape=mxgraph.aws4.productIcon;prIcon=mxgraph.aws4.application_load_balancer;container=0;" vertex="1" parent="1">
          <mxGeometry x="1119" y="240" width="80" height="110" as="geometry" />
        </mxCell>
        <mxCell id="vnblUEhHMYSCbxSBya0f-142" value="Low Latency Trading" style="text;html=1;align=center;verticalAlign=middle;whiteSpace=wrap;rounded=0;" vertex="1" parent="1">
          <mxGeometry x="-400" y="735" width="80" height="30" as="geometry" />
        </mxCell>
        <mxCell id="vnblUEhHMYSCbxSBya0f-143" value="Static resources" style="text;html=1;align=center;verticalAlign=middle;whiteSpace=wrap;rounded=0;" vertex="1" parent="1">
          <mxGeometry x="-330" y="610" width="70" height="30" as="geometry" />
        </mxCell>
        <mxCell id="vnblUEhHMYSCbxSBya0f-144" value="Origin Failover" style="text;html=1;align=center;verticalAlign=middle;whiteSpace=wrap;rounded=0;" vertex="1" parent="1">
          <mxGeometry y="735" width="70" height="30" as="geometry" />
        </mxCell>
        <mxCell id="vnblUEhHMYSCbxSBya0f-145" value="&lt;b&gt;Date&lt;/b&gt;: &lt;i&gt;Da Nang, 26/02/2025&lt;/i&gt;&lt;div&gt;&lt;b&gt;Author&lt;/b&gt;: &lt;i&gt;Daniel Pham&lt;/i&gt;&lt;/div&gt;&lt;div&gt;&lt;b&gt;Site&lt;/b&gt;:&lt;i&gt;https://devopslite.com&lt;/i&gt;&lt;/div&gt;" style="text;html=1;align=left;verticalAlign=middle;whiteSpace=wrap;rounded=0;fontSize=15;labelBackgroundColor=none;spacing=2;fillColor=#d5e8d4;strokeColor=#82b366;spacingLeft=15;" vertex="1" parent="1">
          <mxGeometry x="1680" y="1360" width="220" height="80" as="geometry" />
        </mxCell>
        <mxCell id="vnblUEhHMYSCbxSBya0f-147" value="Write" style="text;html=1;align=center;verticalAlign=middle;whiteSpace=wrap;rounded=0;" vertex="1" parent="1">
          <mxGeometry x="630" y="240" width="60" height="30" as="geometry" />
        </mxCell>
        <mxCell id="vnblUEhHMYSCbxSBya0f-148" value="Read" style="text;html=1;align=center;verticalAlign=middle;whiteSpace=wrap;rounded=0;" vertex="1" parent="1">
          <mxGeometry x="630" y="350" width="60" height="30" as="geometry" />
        </mxCell>
        <mxCell id="vnblUEhHMYSCbxSBya0f-149" value="Read Replica" style="text;html=1;align=center;verticalAlign=middle;whiteSpace=wrap;rounded=0;" vertex="1" parent="1">
          <mxGeometry x="675" y="1180" width="90" height="30" as="geometry" />
        </mxCell>
        <mxCell id="vnblUEhHMYSCbxSBya0f-150" value="" style="outlineConnect=0;dashed=0;verticalLabelPosition=bottom;verticalAlign=top;align=center;html=1;shape=mxgraph.aws3.kms;fillColor=#759C3E;gradientColor=none;" vertex="1" parent="1">
          <mxGeometry x="1150" y="878" width="76.5" height="93" as="geometry" />
        </mxCell>
        <mxCell id="vnblUEhHMYSCbxSBya0f-151" value="KMS" style="text;html=1;align=center;verticalAlign=middle;whiteSpace=wrap;rounded=0;container=0;" vertex="1" parent="1">
          <mxGeometry x="1170" y="975.5" width="38.5" height="30" as="geometry" />
        </mxCell>
        <mxCell id="vnblUEhHMYSCbxSBya0f-152" value="" style="outlineConnect=0;dashed=0;verticalLabelPosition=bottom;verticalAlign=top;align=center;html=1;shape=mxgraph.aws3.kms;fillColor=#759C3E;gradientColor=none;" vertex="1" parent="1">
          <mxGeometry x="1150" y="520" width="76.5" height="93" as="geometry" />
        </mxCell>
        <mxCell id="vnblUEhHMYSCbxSBya0f-153" value="KMS" style="text;html=1;align=center;verticalAlign=middle;whiteSpace=wrap;rounded=0;container=0;" vertex="1" parent="1">
          <mxGeometry x="1170" y="617.5" width="38.5" height="30" as="geometry" />
        </mxCell>
        <mxCell id="vnblUEhHMYSCbxSBya0f-157" value="" style="shape=image;html=1;verticalAlign=top;verticalLabelPosition=bottom;labelBackgroundColor=#ffffff;imageAspect=0;aspect=fixed;image=https://cdn2.iconfinder.com/data/icons/social-media-2285/512/1_Slack_colored_svg-128.png" vertex="1" parent="1">
          <mxGeometry x="1800" y="420" width="88" height="88" as="geometry" />
        </mxCell>
        <mxCell id="vnblUEhHMYSCbxSBya0f-158" value="Slack" style="text;html=1;align=center;verticalAlign=middle;whiteSpace=wrap;rounded=0;" vertex="1" parent="1">
          <mxGeometry x="1814" y="521" width="60" height="30" as="geometry" />
        </mxCell>
        <mxCell id="vnblUEhHMYSCbxSBya0f-159" value="(Optional)" style="text;html=1;align=center;verticalAlign=middle;whiteSpace=wrap;rounded=0;" vertex="1" parent="1">
          <mxGeometry x="1715" y="310" width="60" height="30" as="geometry" />
        </mxCell>
      </root>
    </mxGraphModel>
  </diagram>
</mxfile>
